<svg width="25" height="24" viewBox="0 0 25 24" fill="none" xmlns="http://www.w3.org/2000/svg">
<path fill-rule="evenodd" clip-rule="evenodd" d="M12.5537 2.1665C7.01943 2.1665 2.54547 6.67344 2.54547 12.2491C2.54547 16.7061 5.41209 20.4788 9.38885 21.8141C9.88605 21.9145 10.0682 21.5971 10.0682 21.3302C10.0682 21.0965 10.0518 20.2953 10.0518 19.4605C7.26772 20.0615 6.68796 18.2585 6.68796 18.2585C6.24055 17.09 5.57762 16.7897 5.57762 16.7897C4.6664 16.172 5.64399 16.172 5.64399 16.172C6.65478 16.2388 7.18516 17.207 7.18516 17.207C8.07979 18.7426 9.52139 18.3087 10.1014 18.0416C10.1841 17.3905 10.4494 16.9398 10.7311 16.6895C8.51061 16.4558 6.17438 15.5878 6.17438 11.7149C6.17438 10.6131 6.57181 9.71174 7.20155 9.0107C7.10219 8.76036 6.75413 7.7252 7.30111 6.33973C7.30111 6.33973 8.14616 6.07259 10.0516 7.37468C10.8673 7.15398 11.7086 7.0417 12.5537 7.04076C13.3988 7.04076 14.2602 7.15773 15.0557 7.37468C16.9613 6.07259 17.8064 6.33973 17.8064 6.33973C18.3534 7.7252 18.0051 8.76036 17.9057 9.0107C18.5521 9.71174 18.9331 10.6131 18.9331 11.7149C18.9331 15.5878 16.5969 16.439 14.3598 16.6895C14.7245 17.0066 15.0391 17.6075 15.0391 18.5591C15.0391 19.9111 15.0227 20.9963 15.0227 21.33C15.0227 21.5972 15.2051 21.9145 15.702 21.8143C19.6788 20.4786 22.5454 16.7061 22.5454 12.2491C22.5618 6.67344 18.0715 2.1665 12.5537 2.1665Z" fill="#D9E8FF"/>
</svg>
