<svg width="25" height="24" viewBox="0 0 25 24" fill="none" xmlns="http://www.w3.org/2000/svg">
<path d="M21.5455 4.32353V19.6765C21.5455 20.0275 21.406 20.3641 21.1578 20.6123C20.9096 20.8606 20.573 21 20.2219 21H4.869C4.51798 21 4.18133 20.8606 3.93312 20.6123C3.68491 20.3641 3.54547 20.0275 3.54547 19.6765V4.32353C3.54547 3.97251 3.68491 3.63586 3.93312 3.38765C4.18133 3.13944 4.51798 3 4.869 3H20.2219C20.573 3 20.9096 3.13944 21.1578 3.38765C21.406 3.63586 21.5455 3.97251 21.5455 4.32353ZM8.83959 9.88235H6.19253V18.3529H8.83959V9.88235ZM9.07782 6.97059C9.07922 6.77036 9.04116 6.57182 8.96583 6.3863C8.89049 6.20078 8.77935 6.03191 8.63875 5.88935C8.49815 5.74678 8.33084 5.6333 8.14639 5.5554C7.96193 5.47749 7.76394 5.43668 7.56371 5.43529H7.51606C7.10887 5.43529 6.71837 5.59705 6.43044 5.88497C6.14252 6.17289 5.98077 6.5634 5.98077 6.97059C5.98077 7.37777 6.14252 7.76828 6.43044 8.05621C6.71837 8.34413 7.10887 8.50588 7.51606 8.50588C7.7163 8.51081 7.91555 8.47623 8.10243 8.40413C8.2893 8.33202 8.46014 8.2238 8.60517 8.08565C8.75021 7.94749 8.8666 7.78212 8.9477 7.59897C9.0288 7.41582 9.07302 7.21848 9.07782 7.01824V6.97059ZM18.8984 13.2071C18.8984 10.6606 17.2784 9.67059 15.669 9.67059C15.142 9.6442 14.6174 9.75644 14.1473 9.9961C13.6773 10.2358 13.2783 10.5945 12.9902 11.0365H12.9161V9.88235H10.4278V18.3529H13.0749V13.8476C13.0366 13.3862 13.182 12.9283 13.4793 12.5735C13.7767 12.2186 14.2021 11.9954 14.6631 11.9524H14.7637C15.6055 11.9524 16.2302 12.4818 16.2302 13.8159V18.3529H18.8772L18.8984 13.2071Z" fill="#D9E8FF"/>
</svg>
